# xmcd CD database file
#
# Track frame offsets:
#	150
#	20530
#	37844
#	62235
#	86967
#	123807
#	155680
#	179208
#	219843
#
# Disc length: 3375 seconds
#
# Revision: 3
# Processed by: cddbd v1.5.2PL0 Copyright (c) Steve Scherf et al.
# Submitted via: CDex 1.70beta2
#
DISCID=790d2d09
DTITLE=Big Papa and the TCB - nice 'n' greazy
DYEAR=2007
DGENRE=Blues
TTITLE0=Flip Flop and Fly
TTITLE1=Little Miss Mischief
TTITLE2=200 Lbs of Trouble
TTITLE3=Ain't No Thang
TTITLE4=Hoochie Coochie Man
TTITLE5=I Want You Back
TTITLE6=Cupid
TTITLE7=Too Many Dirty Dishes
TTITLE8=Go Big Papa!
EXTD=YEAR: 2007
EXTT0=
EXTT1=
EXTT2=
EXTT3=
EXTT4=
EXTT5=
EXTT6=
EXTT7=
EXTT8=
PLAYORDER=
